<svg width="64" height="64" viewBox="0 0 64 64" fill="none" xmlns="http://www.w3.org/2000/svg">
  <defs>
    <linearGradient id="grad1" x1="0%" y1="0%" x2="100%" y2="100%">
      <stop offset="0%" style="stop-color:#38bdf8;stop-opacity:1" />
      <stop offset="100%" style="stop-color:#a78bfa;stop-opacity:1" />
    </linearGradient>
  </defs>
  <path d="M12 16C12 13.7909 13.7909 12 16 12H44C45.1046 12 46 12.8954 46 14V46C46 47.1046 45.1046 48 44 48H16C13.7909 48 12 46.2091 12 44V16Z" fill="url(#grad1)" fill-opacity="0.2"/>
  <path d="M12 16C12 13.7909 13.7909 12 16 12H44C45.1046 12 46 12.8954 46 14V46C46 47.1046 45.1046 48 44 48H16C13.7909 48 12 46.2091 12 44V16Z" stroke="url(#grad1)" stroke-width="3"/>
  <path d="M46 24H52C53.1046 24 54 24.8954 54 26V38C54 39.1046 53.1046 40 52 40H46" stroke="url(#grad1)" stroke-width="3"/>
  <line x1="20" y1="38" x2="40" y2="38" stroke="white" stroke-width="2" stroke-linecap="round" stroke-opacity="0.6"/>
  <line x1="20" y1="28" x2="40" y2="28" stroke="white" stroke-width="2" stroke-linecap="round" stroke-opacity="0.6"/>
</svg>
